<?xml version="1.0" standalone="no"?>
<!DOCTYPE svg PUBLIC "-//W3C//DTD SVG 20010904//EN"
 "http://www.w3.org/TR/2001/REC-SVG-20010904/DTD/svg10.dtd">
<svg version="1.0" xmlns="http://www.w3.org/2000/svg"
 width="896.000000pt" height="896.000000pt" viewBox="0 0 896.000000 896.000000"
 preserveAspectRatio="xMidYMid meet">
<metadata>
Created by potrace 1.14, written by Peter Selinger 2001-2017
</metadata>
<g transform="translate(0.000000,896.000000) scale(0.100000,-0.100000)"
fill="#000000" stroke="none">
<path d="M4867 7414 c-1 -1 -105 -5 -232 -8 -126 -3 -261 -8 -300 -11 -262
-16 -381 -24 -450 -30 -105 -10 -160 -16 -175 -20 -8 -2 -31 -7 -50 -11 -19
-3 -39 -7 -45 -8 -5 -2 -23 -6 -40 -10 -59 -15 -280 -78 -300 -86 -11 -5 -47
-18 -80 -30 -33 -11 -69 -24 -80 -29 -17 -8 -50 -21 -65 -26 -53 -18 -302
-144 -402 -203 -80 -47 -247 -158 -258 -171 -3 -3 -25 -22 -50 -41 -25 -19
-54 -42 -64 -50 -51 -39 -278 -273 -326 -335 -30 -38 -57 -72 -61 -75 -3 -3
-19 -25 -34 -50 -16 -24 -34 -51 -42 -58 -7 -7 -13 -19 -13 -27 0 -7 -4 -15
-8 -17 -24 -10 -147 -258 -200 -403 -55 -151 -78 -233 -108 -380 -2 -11 -6
-31 -9 -45 -10 -48 -27 -196 -30 -257 -2 -34 -5 -65 -7 -70 -6 -12 -2 -328 6
-423 8 -93 10 -118 21 -200 13 -105 15 -115 29 -185 8 -38 16 -86 19 -105 5
-42 83 -358 102 -415 7 -22 23 -74 35 -115 12 -41 28 -88 35 -105 8 -16 19
-51 26 -78 11 -47 11 -49 -25 -102 -20 -31 -57 -77 -83 -103 -49 -50 -216
-180 -261 -203 -15 -8 -29 -17 -32 -20 -6 -7 -74 -46 -175 -99 -88 -47 -224
-91 -320 -105 -45 -7 -112 -16 -135 -20 -34 -6 -118 -16 -160 -20 -69 -6 -195
-36 -260 -62 -95 -38 -146 -77 -174 -131 -80 -159 -74 -342 16 -438 33 -36
118 -100 118 -89 0 3 10 0 23 -7 12 -6 27 -13 32 -15 207 -56 287 -67 485 -67
180 1 247 8 418 45 151 33 373 106 460 153 15 8 43 22 62 31 133 64 372 227
409 278 7 10 17 15 22 10 8 -8 61 -155 170 -473 21 -63 42 -122 46 -130 3 -8
7 -21 9 -28 5 -26 35 -62 63 -77 60 -30 249 -85 351 -101 19 -3 37 -7 40 -9
29 -18 333 -25 460 -12 114 12 273 56 358 99 29 15 56 59 77 128 9 30 26 78
37 106 11 29 21 58 22 65 2 8 6 23 10 34 32 84 38 100 37 102 0 2 1 8 4 15 2
7 27 81 55 163 29 83 56 164 61 181 l9 32 83 -24 c45 -13 100 -26 122 -30 22
-3 46 -11 53 -16 6 -6 12 -8 12 -5 0 3 26 -1 58 -8 82 -19 310 -61 387 -70 17
-2 50 -7 75 -10 25 -3 58 -8 74 -11 17 -3 53 -7 80 -9 28 -2 96 -7 151 -12
126 -10 561 -10 680 0 109 10 157 15 204 22 20 2 54 7 76 11 22 3 72 12 110
19 39 8 81 16 95 18 52 10 199 50 287 78 51 17 97 28 102 25 6 -4 30 -71 37
-108 1 -5 3 -10 4 -13 1 -3 3 -8 5 -12 1 -5 5 -15 8 -23 6 -12 118 -356 175
-534 14 -45 62 -106 83 -106 13 0 16 -1 51 -11 108 -31 290 -53 453 -53 198
-1 313 21 417 79 64 36 79 55 183 235 124 213 168 295 268 496 91 183 116 237
192 414 20 47 40 93 45 102 6 10 10 22 10 28 0 6 9 29 20 53 11 23 29 69 41
102 12 33 39 110 61 170 60 168 172 557 192 664 3 14 11 60 20 101 8 41 17 95
21 120 3 25 11 64 16 87 5 24 8 46 7 50 -1 5 1 26 5 48 7 41 16 128 23 225 5
70 5 414 -1 460 -2 19 -6 60 -9 90 -7 67 -45 291 -51 300 -2 4 -7 21 -10 39
-6 34 -60 212 -75 246 -5 11 -17 40 -26 65 -28 68 -127 265 -136 268 -4 2 -8
8 -8 13 0 15 -93 149 -167 242 -160 202 -427 425 -681 569 -97 55 -261 135
-266 130 -3 -3 -6 1 -6 8 0 7 -2 11 -5 8 -3 -3 -47 12 -98 34 -86 38 -382 140
-437 152 -14 3 -70 17 -125 31 -124 32 -313 73 -368 81 -71 10 -82 12 -82 14
0 2 -14 4 -90 14 -27 4 -61 9 -75 12 -14 2 -47 7 -75 9 -27 3 -70 8 -95 11
-25 4 -58 8 -75 9 -122 13 -249 23 -360 30 -137 9 -732 24 -738 19z m613 -278
c180 -10 263 -16 425 -31 84 -8 190 -21 232 -29 12 -3 46 -7 75 -10 30 -4 92
-13 138 -22 47 -8 94 -17 105 -18 52 -8 108 -20 200 -43 55 -13 107 -26 115
-28 14 -3 63 -16 185 -50 61 -16 269 -90 310 -109 17 -8 55 -24 85 -36 55 -22
271 -129 280 -139 3 -3 27 -17 53 -31 27 -14 55 -33 64 -42 9 -10 20 -18 26
-18 10 0 122 -81 191 -138 205 -170 372 -380 487 -612 88 -178 159 -402 184
-580 3 -19 7 -44 9 -56 26 -128 26 -541 1 -734 -2 -14 -7 -50 -11 -80 -4 -30
-7 -63 -8 -72 0 -10 -3 -18 -6 -18 -3 0 -5 -15 -6 -33 -1 -17 -4 -45 -8 -62
-3 -16 -8 -42 -11 -57 -5 -28 -63 -280 -70 -308 -2 -8 -11 -40 -20 -70 -9 -30
-18 -62 -20 -70 -2 -8 -4 -16 -5 -17 -2 -2 -3 -6 -4 -10 -4 -19 -39 -130 -47
-151 -5 -12 -25 -71 -45 -130 -19 -59 -41 -120 -49 -137 -7 -16 -34 -84 -61
-150 -26 -66 -58 -145 -72 -175 -14 -30 -34 -75 -45 -100 -90 -205 -287 -580
-418 -796 -46 -76 -53 -84 -97 -98 -101 -32 -306 -37 -452 -11 -14 2 -43 7
-65 10 -22 3 -47 8 -55 10 -10 3 -45 94 -100 262 -47 142 -85 260 -86 263 0 3
-4 12 -7 20 -3 8 -20 60 -37 115 -42 138 -65 180 -107 200 -52 25 -62 25 -133
-2 -158 -60 -326 -112 -419 -130 -14 -2 -28 -6 -31 -8 -4 -2 -22 -7 -41 -10
-19 -3 -59 -10 -89 -15 -30 -5 -71 -12 -90 -15 -57 -10 -154 -20 -295 -31
-159 -12 -507 -7 -655 11 -19 2 -62 7 -95 10 -33 3 -76 8 -95 10 -19 3 -52 7
-72 9 -21 3 -53 8 -70 11 -18 4 -44 8 -58 9 -14 2 -52 9 -85 15 -33 6 -71 13
-85 16 -14 2 -45 9 -70 15 -25 5 -56 12 -70 14 -38 7 -58 12 -145 35 -108 29
-101 27 -180 51 -83 26 -129 27 -164 3 -37 -24 -47 -36 -56 -63 -4 -14 -13
-38 -20 -55 -10 -23 -135 -393 -141 -415 0 -3 -4 -14 -8 -25 -4 -11 -12 -31
-16 -45 -4 -14 -11 -34 -16 -45 -4 -11 -8 -27 -10 -36 -2 -9 -12 -36 -22 -60
-10 -24 -25 -66 -32 -92 -13 -49 -25 -59 -83 -71 -45 -10 -69 -15 -85 -20 -85
-24 -332 -22 -462 4 -30 6 -64 13 -75 15 -66 11 -168 46 -179 61 -7 9 -19 40
-26 68 -7 28 -15 56 -18 61 -6 10 -49 127 -57 155 -3 8 -13 40 -24 70 -70 195
-144 408 -148 427 -7 29 -54 70 -96 81 -45 12 -103 -7 -138 -47 -77 -89 -125
-135 -213 -210 -91 -75 -300 -193 -444 -249 -107 -42 -302 -98 -372 -107 -30
-4 -58 -9 -61 -11 -7 -4 -196 -16 -254 -16 -168 0 -414 52 -434 91 -12 24 -4
90 13 117 17 25 106 57 191 68 66 9 124 16 155 21 14 2 50 6 80 10 30 3 78 10
105 15 28 5 65 12 84 15 19 3 37 8 41 10 3 2 17 6 31 9 42 8 172 57 242 93
263 132 535 334 625 465 9 13 22 29 29 36 7 7 29 46 48 86 40 80 57 179 37
219 -19 39 -123 364 -137 427 -1 8 -9 35 -16 60 -7 25 -14 54 -16 64 -2 11
-10 49 -19 85 -18 77 -33 153 -39 196 -3 17 -7 41 -10 55 -3 14 -8 45 -11 70
-3 25 -7 59 -9 75 -15 119 -19 195 -19 380 -1 116 2 237 6 270 4 33 10 78 12
100 5 40 11 77 21 125 3 14 7 37 10 53 3 15 12 53 21 85 9 31 19 71 23 87 4
17 13 40 20 53 6 12 9 22 6 22 -3 0 1 13 10 30 8 16 15 32 15 35 1 10 14 42
60 140 232 497 687 893 1307 1139 78 31 150 57 160 59 10 1 23 5 28 9 13 8
243 70 305 82 78 16 149 24 250 31 30 2 98 6 150 10 125 9 181 12 385 20 94 4
171 8 172 9 5 5 704 -2 813 -8z"/>
<path d="M3776 6653 c-1 -1 -31 -5 -66 -9 -91 -9 -245 -50 -305 -81 -27 -14
-60 -31 -72 -37 -13 -6 -23 -14 -23 -18 0 -5 -4 -8 -9 -8 -32 0 -111 -108
-106 -145 9 -67 47 -118 101 -131 41 -11 94 6 133 42 38 34 129 80 176 88 13
3 28 7 32 9 44 27 392 27 503 0 14 -3 34 -8 44 -10 11 -2 25 -8 31 -13 7 -5
14 -8 17 -5 3 3 68 -27 146 -65 279 -140 520 -346 679 -580 61 -90 127 -230
150 -315 38 -145 47 -274 30 -406 -7 -52 -10 -68 -21 -116 -42 -186 -209 -475
-366 -634 -99 -100 -149 -135 -245 -174 -78 -32 -195 -42 -262 -23 -21 6 -45
12 -53 13 -36 4 -159 60 -240 109 -174 105 -208 118 -265 96 -59 -23 -90 -79
-80 -146 8 -53 32 -75 170 -156 194 -114 306 -159 460 -185 114 -19 288 6 403
58 131 59 283 183 387 314 22 28 42 52 45 55 16 16 110 160 110 169 0 6 5 11
10 11 6 0 10 4 10 8 0 5 20 45 44 90 24 45 42 82 39 82 -3 0 1 10 9 23 35 54
101 281 113 388 7 62 7 248 0 295 -40 270 -153 520 -332 734 -54 64 -223 232
-269 266 -22 16 -41 31 -44 34 -67 68 -452 290 -504 290 -8 0 -17 4 -20 9 -3
5 -16 11 -28 14 -13 3 -41 11 -63 17 -22 6 -53 13 -70 16 -16 2 -40 7 -52 9
-43 10 -340 25 -347 18z"/>
<path d="M2461 4843 c-42 -20 -75 -50 -119 -108 -5 -5 -14 -31 -21 -57 -26
-94 4 -203 75 -268 40 -36 126 -70 176 -70 135 0 257 115 263 247 9 205 -192
342 -374 256z"/>
</g>
</svg>
