<svg width="50" height="32" viewBox="0 0 1970 1289" fill="none" xmlns="http://www.w3.org/2000/svg">
    <path d="M24.028 1104.29C24.028 1104.29 -13.7692 1169.06 44.6419 1189.13C174.315 1233.68 370.513 1179.56 468.436 1059.15L535.44 1250.71C535.44 1250.71 664.288 1305.45 777.677 1256.19L844.676 1059.15C844.676 1059.15 1195.15 1179.56 1478.62 1059.15L1541.88 1252.07C1541.88 1252.07 1673.3 1285.82 1730 1246.6C1730 1246.6 2638.26 -134.016 829.218 24.7074C829.218 24.7074 112.815 123.223 394.564 904.076C394.564 904.076 400.273 964.723 243.074 1046.82C162.234 1089.04 73.8486 1068.72 24.028 1104.29Z" fill="#BFD7EA" stroke="#BFD7EA" stroke-width="23" stroke-miterlimit="10" stroke-linecap="round" stroke-linejoin="round"/>
    <path d="M624.803 468.094L505.517 578.024L657.548 636.498" stroke="white" stroke-width="23" stroke-linecap="round" stroke-linejoin="round"/>
    <path d="M725.724 220.796C725.724 220.796 767.369 168.301 902.982 187.075C1008.22 201.644 1299.54 392.289 1141.89 654.131C1017.16 861.284 891.505 752.614 839.111 724.337" stroke="white" stroke-width="23" stroke-miterlimit="10" stroke-linecap="round" stroke-linejoin="round"/>
</svg>
