<svg width="50" height="32" viewBox="0 0 430 285" fill="none" xmlns="http://www.w3.org/2000/svg">
    <path d="M9.57124 240.502C9.57124 240.502 1.49128 254.346 13.9779 258.637C41.6984 268.162 83.6399 256.592 104.573 230.851L118.897 271.802C118.897 271.802 146.441 283.502 170.68 272.972L185.003 230.851C185.003 230.851 259.924 256.592 320.521 230.851L334.044 272.092C334.044 272.092 362.14 279.308 374.259 270.922C374.259 270.922 568.42 -24.2141 181.698 9.71648C181.698 9.71648 28.5513 30.7764 88.7814 197.701C88.7814 197.701 90.0018 210.665 56.397 228.216C39.1158 237.241 20.2215 232.898 9.57124 240.502Z" stroke="#BFD7EA" stroke-width="13.6247" stroke-miterlimit="10" stroke-linecap="round" stroke-linejoin="round"/>
    <path d="M116.5 130.5C125.934 143.783 145.5 152.5 165 130.5" stroke="#BFD7EA" stroke-width="14" stroke-linecap="round"/>
    <path d="M159.574 51.6347C159.574 51.6347 168.477 40.4127 197.467 44.4261C219.964 47.5405 282.239 88.2952 248.538 144.269C221.876 188.553 195.013 165.323 183.813 159.278" stroke="#BFD7EA" stroke-width="13.6247" stroke-miterlimit="10" stroke-linecap="round" stroke-linejoin="round"/>
    <path d="M157 178.173L165.8 157L175 178.173C175 178.173 165.8 193.534 157 178.173Z" fill="#BFD7EA"/>
</svg>
